<?xml version="1.0" encoding="UTF-8" standalone="no"?>
<svg xmlns="http://www.w3.org/2000/svg" xmlns:xlink="http://www.w3.org/1999/xlink" class="card" face="4D" width="2.5in" height="3.5in" viewBox="-120 -168 240 336">
<defs>
<symbol id="pD" viewBox="-600 -600 1200 1200"><path d="M-400 0C-350 0 0 -450 0 -500C0 -450 350 0 400 0C350 0 0 450 0 500C0 450 -350 0 -400 0Z" fill="#b0132a"/></symbol>
<g id="iD4">
<path d="M50 460L250 460M150 460L150 -460L-300 175L-300 200L270 200" transform="matrix(0.110769 0 0 0.101678 -66.338462 -104.838841)" fill="none" stroke="#b0132a" stroke-width="80" stroke-linecap="square" stroke-linejoin="miter" stroke-miterlimit="1.5" vector-effect="none"/>
<use xlink:href="#pD" x="-97.28" y="-53.28" width="34.56" height="34.56"/>
</g>
</defs>
<rect x="-119.5" y="-167.5" width="239" height="335" rx="13" ry="13" fill="#ffffff" stroke="#ccd4dc"/>
<use xlink:href="#iD4"/>
<use xlink:href="#pD" x="-39.44" y="-9.44" width="122.88" height="122.88"/>
</svg>
